<mxfile host="Electron" agent="Mozilla/5.0 (Windows NT 10.0; Win64; x64) AppleWebKit/537.36 (KHTML, like Gecko) draw.io/25.0.2 Chrome/128.0.6613.186 Electron/32.2.5 Safari/537.36" version="25.0.2">
  <diagram id="DKDZqXEprc8uhIXytFnv" name="Page-1">
    <mxGraphModel dx="1221" dy="823" grid="1" gridSize="10" guides="1" tooltips="1" connect="1" arrows="1" fold="1" page="1" pageScale="1" pageWidth="850" pageHeight="1100" math="0" shadow="0">
      <root>
        <mxCell id="KGWVqX3tYelNZbesqAz7-0" />
        <mxCell id="KGWVqX3tYelNZbesqAz7-1" parent="KGWVqX3tYelNZbesqAz7-0" />
        <mxCell id="UW-TUA5hILtc3TxUjtZY-0" value="" style="rounded=0;whiteSpace=wrap;html=1;" parent="KGWVqX3tYelNZbesqAz7-1" vertex="1">
          <mxGeometry x="1710.0042857142853" y="780" width="160" height="229" as="geometry" />
        </mxCell>
        <mxCell id="UW-TUA5hILtc3TxUjtZY-1" value="" style="rounded=0;whiteSpace=wrap;html=1;fillColor=#dae8fc;strokeColor=#6c8ebf;" parent="KGWVqX3tYelNZbesqAz7-1" vertex="1">
          <mxGeometry x="644.2942857142853" y="650" width="698.71" height="80" as="geometry" />
        </mxCell>
        <mxCell id="UW-TUA5hILtc3TxUjtZY-2" value="" style="rounded=0;whiteSpace=wrap;html=1;fillColor=#dae8fc;strokeColor=#6c8ebf;" parent="KGWVqX3tYelNZbesqAz7-1" vertex="1">
          <mxGeometry x="644.2942857142853" y="850" width="699.71" height="160" as="geometry" />
        </mxCell>
        <mxCell id="UW-TUA5hILtc3TxUjtZY-3" value="" style="rounded=0;whiteSpace=wrap;html=1;fillColor=#dae8fc;strokeColor=#6c8ebf;" parent="KGWVqX3tYelNZbesqAz7-1" vertex="1">
          <mxGeometry x="644.29" y="530" width="680" height="80" as="geometry" />
        </mxCell>
        <mxCell id="UW-TUA5hILtc3TxUjtZY-4" value="" style="group;fillColor=#dae8fc;strokeColor=#6c8ebf;container=0;" parent="KGWVqX3tYelNZbesqAz7-1" vertex="1" connectable="0">
          <mxGeometry x="644.2942857142853" y="290" width="699.71" height="80" as="geometry" />
        </mxCell>
        <mxCell id="UW-TUA5hILtc3TxUjtZY-5" value="" style="rounded=0;whiteSpace=wrap;html=1;fillColor=#dae8fc;strokeColor=#6c8ebf;" parent="KGWVqX3tYelNZbesqAz7-1" vertex="1">
          <mxGeometry x="644.2942857142853" y="410" width="699.71" height="80" as="geometry" />
        </mxCell>
        <mxCell id="UW-TUA5hILtc3TxUjtZY-6" value="CameraHandler" style="rounded=0;whiteSpace=wrap;html=1;fillColor=#ffe6cc;strokeColor=#d79b00;" parent="KGWVqX3tYelNZbesqAz7-1" vertex="1">
          <mxGeometry x="854.29" y="310" width="100" height="40" as="geometry" />
        </mxCell>
        <mxCell id="UW-TUA5hILtc3TxUjtZY-7" value="GPS_talker" style="rounded=0;whiteSpace=wrap;html=1;fillColor=#ffe6cc;strokeColor=#d79b00;" parent="KGWVqX3tYelNZbesqAz7-1" vertex="1">
          <mxGeometry x="1064.29" y="310" width="80" height="40" as="geometry" />
        </mxCell>
        <mxCell id="UW-TUA5hILtc3TxUjtZY-8" value="Traffic_light listener" style="rounded=0;whiteSpace=wrap;html=1;fillColor=#ffe6cc;strokeColor=#d79b00;" parent="KGWVqX3tYelNZbesqAz7-1" vertex="1">
          <mxGeometry x="969.29" y="310" width="80" height="40" as="geometry" />
        </mxCell>
        <mxCell id="UW-TUA5hILtc3TxUjtZY-9" value="BNO - listener" style="rounded=0;whiteSpace=wrap;html=1;fillColor=#ffe6cc;strokeColor=#d79b00;" parent="KGWVqX3tYelNZbesqAz7-1" vertex="1">
          <mxGeometry x="1164.29" y="310" width="90" height="40" as="geometry" />
        </mxCell>
        <mxCell id="UW-TUA5hILtc3TxUjtZY-10" value="V2V - listener" style="rounded=0;whiteSpace=wrap;html=1;fillColor=#ffe6cc;strokeColor=#d79b00;" parent="KGWVqX3tYelNZbesqAz7-1" vertex="1">
          <mxGeometry x="664.29" y="310" width="70" height="40" as="geometry" />
        </mxCell>
        <mxCell id="UW-TUA5hILtc3TxUjtZY-11" value="" style="endArrow=classic;html=1;exitX=0.25;exitY=1;exitDx=0;exitDy=0;entryX=0.5;entryY=0;entryDx=0;entryDy=0;" parent="KGWVqX3tYelNZbesqAz7-1" source="UW-TUA5hILtc3TxUjtZY-6" target="UW-TUA5hILtc3TxUjtZY-87" edge="1">
          <mxGeometry relative="1" as="geometry">
            <mxPoint x="974.29" y="650" as="sourcePoint" />
            <mxPoint x="1074.29" y="650" as="targetPoint" />
          </mxGeometry>
        </mxCell>
        <mxCell id="UW-TUA5hILtc3TxUjtZY-12" value="Road ROI" style="edgeLabel;resizable=0;html=1;align=center;verticalAlign=middle;" parent="UW-TUA5hILtc3TxUjtZY-11" connectable="0" vertex="1">
          <mxGeometry relative="1" as="geometry">
            <mxPoint x="-5.04" y="-9.690000000000001" as="offset" />
          </mxGeometry>
        </mxCell>
        <mxCell id="UW-TUA5hILtc3TxUjtZY-13" value="" style="endArrow=classic;html=1;exitX=0.5;exitY=1;exitDx=0;exitDy=0;entryX=0.5;entryY=0;entryDx=0;entryDy=0;" parent="KGWVqX3tYelNZbesqAz7-1" source="UW-TUA5hILtc3TxUjtZY-6" target="UW-TUA5hILtc3TxUjtZY-88" edge="1">
          <mxGeometry relative="1" as="geometry">
            <mxPoint x="749.29" y="350" as="sourcePoint" />
            <mxPoint x="744.29" y="430" as="targetPoint" />
          </mxGeometry>
        </mxCell>
        <mxCell id="UW-TUA5hILtc3TxUjtZY-14" value="&lt;div&gt;Sign ROI&lt;/div&gt;" style="edgeLabel;resizable=0;html=1;align=center;verticalAlign=middle;" parent="UW-TUA5hILtc3TxUjtZY-13" connectable="0" vertex="1">
          <mxGeometry relative="1" as="geometry">
            <mxPoint y="9.74" as="offset" />
          </mxGeometry>
        </mxCell>
        <mxCell id="UW-TUA5hILtc3TxUjtZY-15" value="" style="endArrow=classic;html=1;exitX=0.75;exitY=1;exitDx=0;exitDy=0;entryX=0.5;entryY=0;entryDx=0;entryDy=0;" parent="KGWVqX3tYelNZbesqAz7-1" source="UW-TUA5hILtc3TxUjtZY-6" target="UW-TUA5hILtc3TxUjtZY-89" edge="1">
          <mxGeometry relative="1" as="geometry">
            <mxPoint x="789.29" y="350" as="sourcePoint" />
            <mxPoint x="819.29" y="430" as="targetPoint" />
          </mxGeometry>
        </mxCell>
        <mxCell id="UW-TUA5hILtc3TxUjtZY-16" value="Intersection ROI" style="edgeLabel;resizable=0;html=1;align=center;verticalAlign=middle;" parent="UW-TUA5hILtc3TxUjtZY-15" connectable="0" vertex="1">
          <mxGeometry relative="1" as="geometry">
            <mxPoint x="-3.54" y="-9.81" as="offset" />
          </mxGeometry>
        </mxCell>
        <mxCell id="UW-TUA5hILtc3TxUjtZY-17" value="" style="endArrow=classic;html=1;exitX=0.5;exitY=1;exitDx=0;exitDy=0;entryX=0.5;entryY=0;entryDx=0;entryDy=0;" parent="KGWVqX3tYelNZbesqAz7-1" source="UW-TUA5hILtc3TxUjtZY-9" target="UW-TUA5hILtc3TxUjtZY-91" edge="1">
          <mxGeometry relative="1" as="geometry">
            <mxPoint x="814.29" y="350" as="sourcePoint" />
            <mxPoint x="901.79" y="430" as="targetPoint" />
          </mxGeometry>
        </mxCell>
        <mxCell id="UW-TUA5hILtc3TxUjtZY-18" value="BNO_pos" style="edgeLabel;resizable=0;html=1;align=center;verticalAlign=middle;" parent="UW-TUA5hILtc3TxUjtZY-17" connectable="0" vertex="1">
          <mxGeometry relative="1" as="geometry">
            <mxPoint x="19.880000000000003" y="-0.25" as="offset" />
          </mxGeometry>
        </mxCell>
        <mxCell id="UW-TUA5hILtc3TxUjtZY-19" value="" style="endArrow=classic;html=1;exitX=0.5;exitY=1;exitDx=0;exitDy=0;entryX=0.25;entryY=0;entryDx=0;entryDy=0;" parent="KGWVqX3tYelNZbesqAz7-1" source="UW-TUA5hILtc3TxUjtZY-7" target="UW-TUA5hILtc3TxUjtZY-91" edge="1">
          <mxGeometry relative="1" as="geometry">
            <mxPoint x="1129.29" y="350" as="sourcePoint" />
            <mxPoint x="1169.29" y="430" as="targetPoint" />
          </mxGeometry>
        </mxCell>
        <mxCell id="UW-TUA5hILtc3TxUjtZY-20" value="car_pos" style="edgeLabel;resizable=0;html=1;align=center;verticalAlign=middle;" parent="UW-TUA5hILtc3TxUjtZY-19" connectable="0" vertex="1">
          <mxGeometry relative="1" as="geometry">
            <mxPoint x="3.7399999999999984" y="-0.009999999999999787" as="offset" />
          </mxGeometry>
        </mxCell>
        <mxCell id="UW-TUA5hILtc3TxUjtZY-21" value="" style="endArrow=classic;html=1;exitX=1;exitY=1;exitDx=0;exitDy=0;entryX=0.25;entryY=0;entryDx=0;entryDy=0;" parent="KGWVqX3tYelNZbesqAz7-1" source="UW-TUA5hILtc3TxUjtZY-6" target="UW-TUA5hILtc3TxUjtZY-90" edge="1">
          <mxGeometry relative="1" as="geometry">
            <mxPoint x="929.29" y="350" as="sourcePoint" />
            <mxPoint x="988.04" y="430" as="targetPoint" />
          </mxGeometry>
        </mxCell>
        <mxCell id="UW-TUA5hILtc3TxUjtZY-22" value="Traffic_light ROI" style="edgeLabel;resizable=0;html=1;align=center;verticalAlign=middle;" parent="UW-TUA5hILtc3TxUjtZY-21" connectable="0" vertex="1">
          <mxGeometry relative="1" as="geometry">
            <mxPoint x="13.84" y="10.049999999999999" as="offset" />
          </mxGeometry>
        </mxCell>
        <mxCell id="UW-TUA5hILtc3TxUjtZY-23" value="" style="endArrow=classic;html=1;exitX=0.75;exitY=1;exitDx=0;exitDy=0;entryX=0.75;entryY=0;entryDx=0;entryDy=0;" parent="KGWVqX3tYelNZbesqAz7-1" source="UW-TUA5hILtc3TxUjtZY-8" target="UW-TUA5hILtc3TxUjtZY-90" edge="1">
          <mxGeometry relative="1" as="geometry">
            <mxPoint x="929.29" y="350" as="sourcePoint" />
            <mxPoint x="1006.79" y="430" as="targetPoint" />
          </mxGeometry>
        </mxCell>
        <mxCell id="UW-TUA5hILtc3TxUjtZY-24" value="Traffic state" style="edgeLabel;resizable=0;html=1;align=center;verticalAlign=middle;" parent="UW-TUA5hILtc3TxUjtZY-23" connectable="0" vertex="1">
          <mxGeometry relative="1" as="geometry">
            <mxPoint x="-3.54" y="-9.81" as="offset" />
          </mxGeometry>
        </mxCell>
        <mxCell id="UW-TUA5hILtc3TxUjtZY-25" value="" style="endArrow=classic;html=1;exitX=0.5;exitY=1;exitDx=0;exitDy=0;entryX=0.25;entryY=0;entryDx=0;entryDy=0;" parent="KGWVqX3tYelNZbesqAz7-1" source="UW-TUA5hILtc3TxUjtZY-10" target="UW-TUA5hILtc3TxUjtZY-86" edge="1">
          <mxGeometry relative="1" as="geometry">
            <mxPoint x="879.29" y="350" as="sourcePoint" />
            <mxPoint x="819.29" y="430" as="targetPoint" />
          </mxGeometry>
        </mxCell>
        <mxCell id="UW-TUA5hILtc3TxUjtZY-26" value="Car pos" style="edgeLabel;resizable=0;align=center;verticalAlign=middle;html=1;" parent="UW-TUA5hILtc3TxUjtZY-25" connectable="0" vertex="1">
          <mxGeometry relative="1" as="geometry" />
        </mxCell>
        <mxCell id="UW-TUA5hILtc3TxUjtZY-27" value="" style="endArrow=classic;html=1;exitX=0;exitY=0.5;exitDx=0;exitDy=0;entryX=0.75;entryY=0;entryDx=0;entryDy=0;" parent="KGWVqX3tYelNZbesqAz7-1" source="UW-TUA5hILtc3TxUjtZY-6" target="UW-TUA5hILtc3TxUjtZY-86" edge="1">
          <mxGeometry relative="1" as="geometry">
            <mxPoint x="871.79" y="340" as="sourcePoint" />
            <mxPoint x="764.29" y="420" as="targetPoint" />
          </mxGeometry>
        </mxCell>
        <mxCell id="UW-TUA5hILtc3TxUjtZY-28" value="&lt;div&gt;Object &lt;br&gt;&lt;/div&gt;&lt;div&gt;ROI&lt;br&gt;&lt;/div&gt;" style="edgeLabel;resizable=0;html=1;align=center;verticalAlign=middle;" parent="UW-TUA5hILtc3TxUjtZY-27" connectable="0" vertex="1">
          <mxGeometry relative="1" as="geometry">
            <mxPoint x="-15" y="10" as="offset" />
          </mxGeometry>
        </mxCell>
        <mxCell id="UW-TUA5hILtc3TxUjtZY-29" value="" style="group;strokeColor=#6c8ebf;fillColor=#dae8fc;container=0;" parent="KGWVqX3tYelNZbesqAz7-1" vertex="1" connectable="0">
          <mxGeometry x="644.2942857142853" y="530" width="698.71" height="80" as="geometry" />
        </mxCell>
        <mxCell id="UW-TUA5hILtc3TxUjtZY-30" value="" style="endArrow=classic;html=1;exitX=0;exitY=1;exitDx=0;exitDy=0;entryX=0.5;entryY=0;entryDx=0;entryDy=0;" parent="KGWVqX3tYelNZbesqAz7-1" source="UW-TUA5hILtc3TxUjtZY-85" target="UW-TUA5hILtc3TxUjtZY-86" edge="1">
          <mxGeometry relative="1" as="geometry">
            <mxPoint x="854.29" y="330" as="sourcePoint" />
            <mxPoint x="724.29" y="430" as="targetPoint" />
          </mxGeometry>
        </mxCell>
        <mxCell id="UW-TUA5hILtc3TxUjtZY-31" value="dist" style="edgeLabel;resizable=0;html=1;align=center;verticalAlign=middle;" parent="UW-TUA5hILtc3TxUjtZY-30" connectable="0" vertex="1">
          <mxGeometry relative="1" as="geometry">
            <mxPoint y="-10" as="offset" />
          </mxGeometry>
        </mxCell>
        <mxCell id="UW-TUA5hILtc3TxUjtZY-32" value="" style="endArrow=classic;html=1;entryX=0.5;entryY=0;entryDx=0;entryDy=0;exitX=0.5;exitY=1;exitDx=0;exitDy=0;" parent="KGWVqX3tYelNZbesqAz7-1" source="UW-TUA5hILtc3TxUjtZY-91" target="UW-TUA5hILtc3TxUjtZY-99" edge="1">
          <mxGeometry relative="1" as="geometry">
            <mxPoint x="1201.79" y="460" as="sourcePoint" />
            <mxPoint x="1196.79" y="540" as="targetPoint" />
          </mxGeometry>
        </mxCell>
        <mxCell id="UW-TUA5hILtc3TxUjtZY-33" value="Pos and rot" style="edgeLabel;resizable=0;html=1;align=center;verticalAlign=middle;" parent="UW-TUA5hILtc3TxUjtZY-32" connectable="0" vertex="1">
          <mxGeometry relative="1" as="geometry">
            <mxPoint x="1.24" y="-4.84" as="offset" />
          </mxGeometry>
        </mxCell>
        <mxCell id="UW-TUA5hILtc3TxUjtZY-34" value="&lt;font style=&quot;font-size: 14px&quot;&gt;&lt;b&gt;Vehicle Control&lt;/b&gt;&lt;/font&gt;" style="text;html=1;strokeColor=none;fillColor=none;align=center;verticalAlign=middle;whiteSpace=wrap;rounded=0;" parent="KGWVqX3tYelNZbesqAz7-1" vertex="1">
          <mxGeometry x="1249" y="680" width="90" height="20" as="geometry" />
        </mxCell>
        <mxCell id="UW-TUA5hILtc3TxUjtZY-35" style="edgeStyle=orthogonalEdgeStyle;rounded=0;orthogonalLoop=1;jettySize=auto;html=1;entryX=0;entryY=0.5;entryDx=0;entryDy=0;" parent="KGWVqX3tYelNZbesqAz7-1" source="UW-TUA5hILtc3TxUjtZY-36" target="UW-TUA5hILtc3TxUjtZY-77" edge="1">
          <mxGeometry relative="1" as="geometry">
            <Array as="points">
              <mxPoint x="689.29" y="780" />
              <mxPoint x="949.29" y="780" />
              <mxPoint x="949.29" y="880" />
            </Array>
          </mxGeometry>
        </mxCell>
        <mxCell id="UW-TUA5hILtc3TxUjtZY-36" value="Break" style="rounded=0;whiteSpace=wrap;html=1;" parent="KGWVqX3tYelNZbesqAz7-1" vertex="1">
          <mxGeometry x="664.29" y="670" width="50" height="40" as="geometry" />
        </mxCell>
        <mxCell id="UW-TUA5hILtc3TxUjtZY-37" style="edgeStyle=orthogonalEdgeStyle;rounded=0;orthogonalLoop=1;jettySize=auto;html=1;entryX=1;entryY=0;entryDx=0;entryDy=0;" parent="KGWVqX3tYelNZbesqAz7-1" source="UW-TUA5hILtc3TxUjtZY-38" target="UW-TUA5hILtc3TxUjtZY-99" edge="1">
          <mxGeometry relative="1" as="geometry">
            <Array as="points">
              <mxPoint x="1224.29" y="520" />
            </Array>
          </mxGeometry>
        </mxCell>
        <mxCell id="UW-TUA5hILtc3TxUjtZY-38" value="Planned activities" style="rounded=0;whiteSpace=wrap;html=1;" parent="KGWVqX3tYelNZbesqAz7-1" vertex="1">
          <mxGeometry x="1416.0042857142853" y="500" width="87" height="40" as="geometry" />
        </mxCell>
        <mxCell id="UW-TUA5hILtc3TxUjtZY-39" style="edgeStyle=orthogonalEdgeStyle;rounded=0;orthogonalLoop=1;jettySize=auto;html=1;entryX=0.25;entryY=0;entryDx=0;entryDy=0;" parent="KGWVqX3tYelNZbesqAz7-1" source="UW-TUA5hILtc3TxUjtZY-40" target="UW-TUA5hILtc3TxUjtZY-79" edge="1">
          <mxGeometry relative="1" as="geometry">
            <Array as="points">
              <mxPoint x="904.29" y="760" />
              <mxPoint x="879.29" y="760" />
            </Array>
          </mxGeometry>
        </mxCell>
        <mxCell id="UW-TUA5hILtc3TxUjtZY-40" value="Parking" style="rounded=0;whiteSpace=wrap;html=1;" parent="KGWVqX3tYelNZbesqAz7-1" vertex="1">
          <mxGeometry x="894.29" y="670" width="60" height="40" as="geometry" />
        </mxCell>
        <mxCell id="UW-TUA5hILtc3TxUjtZY-41" style="edgeStyle=orthogonalEdgeStyle;rounded=0;orthogonalLoop=1;jettySize=auto;html=1;entryX=0.75;entryY=0;entryDx=0;entryDy=0;" parent="KGWVqX3tYelNZbesqAz7-1" source="UW-TUA5hILtc3TxUjtZY-42" target="UW-TUA5hILtc3TxUjtZY-79" edge="1">
          <mxGeometry relative="1" as="geometry">
            <Array as="points">
              <mxPoint x="1194.29" y="800" />
              <mxPoint x="909.29" y="800" />
            </Array>
          </mxGeometry>
        </mxCell>
        <mxCell id="UW-TUA5hILtc3TxUjtZY-42" value="intersection navigation" style="rounded=0;whiteSpace=wrap;html=1;" parent="KGWVqX3tYelNZbesqAz7-1" vertex="1">
          <mxGeometry x="1154.29" y="670" width="80" height="40" as="geometry" />
        </mxCell>
        <mxCell id="UW-TUA5hILtc3TxUjtZY-43" style="edgeStyle=orthogonalEdgeStyle;rounded=0;orthogonalLoop=1;jettySize=auto;html=1;entryX=0;entryY=0.5;entryDx=0;entryDy=0;exitX=0.25;exitY=1;exitDx=0;exitDy=0;" parent="KGWVqX3tYelNZbesqAz7-1" source="UW-TUA5hILtc3TxUjtZY-44" target="UW-TUA5hILtc3TxUjtZY-79" edge="1">
          <mxGeometry relative="1" as="geometry">
            <Array as="points">
              <mxPoint x="749.29" y="880" />
            </Array>
          </mxGeometry>
        </mxCell>
        <mxCell id="UW-TUA5hILtc3TxUjtZY-44" value="Road search" style="rounded=0;whiteSpace=wrap;html=1;" parent="KGWVqX3tYelNZbesqAz7-1" vertex="1">
          <mxGeometry x="734.29" y="670" width="60" height="40" as="geometry" />
        </mxCell>
        <mxCell id="UW-TUA5hILtc3TxUjtZY-45" style="edgeStyle=orthogonalEdgeStyle;rounded=0;orthogonalLoop=1;jettySize=auto;html=1;entryX=0;entryY=0.25;entryDx=0;entryDy=0;" parent="KGWVqX3tYelNZbesqAz7-1" source="UW-TUA5hILtc3TxUjtZY-46" target="UW-TUA5hILtc3TxUjtZY-79" edge="1">
          <mxGeometry relative="1" as="geometry">
            <Array as="points">
              <mxPoint x="834.29" y="750" />
              <mxPoint x="809.29" y="750" />
              <mxPoint x="809.29" y="870" />
            </Array>
          </mxGeometry>
        </mxCell>
        <mxCell id="UW-TUA5hILtc3TxUjtZY-46" value="Switch lane" style="rounded=0;whiteSpace=wrap;html=1;" parent="KGWVqX3tYelNZbesqAz7-1" vertex="1">
          <mxGeometry x="814.29" y="670" width="60" height="40" as="geometry" />
        </mxCell>
        <mxCell id="UW-TUA5hILtc3TxUjtZY-47" style="edgeStyle=orthogonalEdgeStyle;rounded=0;orthogonalLoop=1;jettySize=auto;html=1;entryX=0;entryY=0.5;entryDx=0;entryDy=0;" parent="KGWVqX3tYelNZbesqAz7-1" source="UW-TUA5hILtc3TxUjtZY-86" target="UW-TUA5hILtc3TxUjtZY-101" edge="1">
          <mxGeometry relative="1" as="geometry">
            <Array as="points">
              <mxPoint x="704.29" y="570" />
            </Array>
          </mxGeometry>
        </mxCell>
        <mxCell id="UW-TUA5hILtc3TxUjtZY-48" style="edgeStyle=orthogonalEdgeStyle;rounded=0;orthogonalLoop=1;jettySize=auto;html=1;entryX=0;entryY=0.5;entryDx=0;entryDy=0;" parent="KGWVqX3tYelNZbesqAz7-1" target="UW-TUA5hILtc3TxUjtZY-36" edge="1">
          <mxGeometry relative="1" as="geometry">
            <mxPoint x="644.29" y="330" as="sourcePoint" />
            <Array as="points">
              <mxPoint x="614.29" y="330" />
              <mxPoint x="614.29" y="690" />
            </Array>
          </mxGeometry>
        </mxCell>
        <mxCell id="UW-TUA5hILtc3TxUjtZY-49" style="edgeStyle=orthogonalEdgeStyle;rounded=0;orthogonalLoop=1;jettySize=auto;html=1;entryX=0.5;entryY=0;entryDx=0;entryDy=0;" parent="KGWVqX3tYelNZbesqAz7-1" source="UW-TUA5hILtc3TxUjtZY-101" target="UW-TUA5hILtc3TxUjtZY-46" edge="1">
          <mxGeometry relative="1" as="geometry">
            <Array as="points">
              <mxPoint x="974.29" y="600" />
              <mxPoint x="844.29" y="600" />
            </Array>
          </mxGeometry>
        </mxCell>
        <mxCell id="UW-TUA5hILtc3TxUjtZY-50" style="edgeStyle=orthogonalEdgeStyle;rounded=0;orthogonalLoop=1;jettySize=auto;html=1;entryX=0.5;entryY=0;entryDx=0;entryDy=0;" parent="KGWVqX3tYelNZbesqAz7-1" target="UW-TUA5hILtc3TxUjtZY-69" edge="1">
          <mxGeometry relative="1" as="geometry">
            <mxPoint x="974.29" y="590" as="sourcePoint" />
            <mxPoint x="864.29" y="670" as="targetPoint" />
            <Array as="points">
              <mxPoint x="974.29" y="600" />
              <mxPoint x="1009.29" y="600" />
            </Array>
          </mxGeometry>
        </mxCell>
        <mxCell id="UW-TUA5hILtc3TxUjtZY-51" style="edgeStyle=orthogonalEdgeStyle;rounded=0;orthogonalLoop=1;jettySize=auto;html=1;entryX=0.5;entryY=0;entryDx=0;entryDy=0;" parent="KGWVqX3tYelNZbesqAz7-1" target="UW-TUA5hILtc3TxUjtZY-40" edge="1">
          <mxGeometry relative="1" as="geometry">
            <mxPoint x="974.29" y="590" as="sourcePoint" />
            <mxPoint x="864.29" y="670" as="targetPoint" />
            <Array as="points">
              <mxPoint x="974.29" y="600" />
              <mxPoint x="924.29" y="600" />
            </Array>
          </mxGeometry>
        </mxCell>
        <mxCell id="UW-TUA5hILtc3TxUjtZY-52" style="edgeStyle=orthogonalEdgeStyle;rounded=0;orthogonalLoop=1;jettySize=auto;html=1;entryX=0;entryY=0.25;entryDx=0;entryDy=0;" parent="KGWVqX3tYelNZbesqAz7-1" source="UW-TUA5hILtc3TxUjtZY-87" target="UW-TUA5hILtc3TxUjtZY-101" edge="1">
          <mxGeometry relative="1" as="geometry">
            <Array as="points">
              <mxPoint x="804.29" y="560" />
            </Array>
          </mxGeometry>
        </mxCell>
        <mxCell id="UW-TUA5hILtc3TxUjtZY-53" style="edgeStyle=orthogonalEdgeStyle;rounded=0;orthogonalLoop=1;jettySize=auto;html=1;entryX=0.25;entryY=0;entryDx=0;entryDy=0;" parent="KGWVqX3tYelNZbesqAz7-1" source="UW-TUA5hILtc3TxUjtZY-88" target="UW-TUA5hILtc3TxUjtZY-101" edge="1">
          <mxGeometry relative="1" as="geometry" />
        </mxCell>
        <mxCell id="UW-TUA5hILtc3TxUjtZY-54" style="edgeStyle=orthogonalEdgeStyle;rounded=0;orthogonalLoop=1;jettySize=auto;html=1;" parent="KGWVqX3tYelNZbesqAz7-1" source="UW-TUA5hILtc3TxUjtZY-89" target="UW-TUA5hILtc3TxUjtZY-101" edge="1">
          <mxGeometry relative="1" as="geometry" />
        </mxCell>
        <mxCell id="UW-TUA5hILtc3TxUjtZY-55" style="edgeStyle=orthogonalEdgeStyle;rounded=0;orthogonalLoop=1;jettySize=auto;html=1;entryX=0.75;entryY=0;entryDx=0;entryDy=0;" parent="KGWVqX3tYelNZbesqAz7-1" source="UW-TUA5hILtc3TxUjtZY-90" target="UW-TUA5hILtc3TxUjtZY-101" edge="1">
          <mxGeometry relative="1" as="geometry">
            <Array as="points">
              <mxPoint x="1109.29" y="520" />
              <mxPoint x="994.29" y="520" />
            </Array>
          </mxGeometry>
        </mxCell>
        <mxCell id="UW-TUA5hILtc3TxUjtZY-56" value="&lt;div&gt;JSON &lt;br&gt;&lt;/div&gt;&lt;div&gt;file&lt;/div&gt;" style="edgeLabel;resizable=0;html=1;align=center;verticalAlign=middle;" parent="KGWVqX3tYelNZbesqAz7-1" connectable="0" vertex="1">
          <mxGeometry x="1389.0048685537927" y="520.0021031393158" as="geometry">
            <mxPoint x="-10" y="-5" as="offset" />
          </mxGeometry>
        </mxCell>
        <mxCell id="UW-TUA5hILtc3TxUjtZY-57" value="&lt;div&gt;Traffic light&lt;/div&gt;&lt;div&gt;trigger&lt;br&gt;&lt;/div&gt;" style="edgeLabel;resizable=0;html=1;align=center;verticalAlign=middle;" parent="KGWVqX3tYelNZbesqAz7-1" connectable="0" vertex="1">
          <mxGeometry x="1064.2948685537926" y="520.0021031393158" as="geometry">
            <mxPoint x="14" y="-6" as="offset" />
          </mxGeometry>
        </mxCell>
        <mxCell id="UW-TUA5hILtc3TxUjtZY-58" value="&lt;div&gt;Intersection&lt;/div&gt;&lt;div&gt;trigger&lt;br&gt;&lt;/div&gt;" style="edgeLabel;resizable=0;html=1;align=center;verticalAlign=middle;" parent="KGWVqX3tYelNZbesqAz7-1" connectable="0" vertex="1">
          <mxGeometry x="984.2948685537926" y="500.00210313931575" as="geometry">
            <mxPoint x="14" y="-6" as="offset" />
          </mxGeometry>
        </mxCell>
        <mxCell id="UW-TUA5hILtc3TxUjtZY-59" value="&lt;div&gt;Sign&lt;/div&gt;&lt;div&gt;trigger&lt;br&gt;&lt;/div&gt;" style="edgeLabel;resizable=0;html=1;align=center;verticalAlign=middle;" parent="KGWVqX3tYelNZbesqAz7-1" connectable="0" vertex="1">
          <mxGeometry x="884.2948685537926" y="500.00210313931575" as="geometry">
            <mxPoint x="14" y="-6" as="offset" />
          </mxGeometry>
        </mxCell>
        <mxCell id="UW-TUA5hILtc3TxUjtZY-60" value="&lt;div&gt;Mid lane&lt;/div&gt;" style="edgeLabel;resizable=0;html=1;align=center;verticalAlign=middle;" parent="KGWVqX3tYelNZbesqAz7-1" connectable="0" vertex="1">
          <mxGeometry x="794.2948685537926" y="510.00210313931575" as="geometry">
            <mxPoint x="14" y="-6" as="offset" />
          </mxGeometry>
        </mxCell>
        <mxCell id="UW-TUA5hILtc3TxUjtZY-61" value="&lt;div&gt;Object &lt;br&gt;&lt;/div&gt;&lt;div&gt;trigger&lt;/div&gt;" style="edgeLabel;resizable=0;html=1;align=center;verticalAlign=middle;" parent="KGWVqX3tYelNZbesqAz7-1" connectable="0" vertex="1">
          <mxGeometry x="684.2948685537926" y="520.0021031393158" as="geometry">
            <mxPoint x="14" y="-6" as="offset" />
          </mxGeometry>
        </mxCell>
        <mxCell id="UW-TUA5hILtc3TxUjtZY-62" style="edgeStyle=orthogonalEdgeStyle;rounded=0;orthogonalLoop=1;jettySize=auto;html=1;entryX=0;entryY=0.5;entryDx=0;entryDy=0;" parent="KGWVqX3tYelNZbesqAz7-1" source="UW-TUA5hILtc3TxUjtZY-63" target="UW-TUA5hILtc3TxUjtZY-86" edge="1">
          <mxGeometry relative="1" as="geometry" />
        </mxCell>
        <mxCell id="UW-TUA5hILtc3TxUjtZY-63" value="&lt;div&gt;Objects&lt;/div&gt;&lt;div&gt;propertyes&lt;br&gt;&lt;/div&gt;" style="rounded=0;whiteSpace=wrap;html=1;" parent="KGWVqX3tYelNZbesqAz7-1" vertex="1">
          <mxGeometry x="490" y="430" width="70" height="40" as="geometry" />
        </mxCell>
        <mxCell id="UW-TUA5hILtc3TxUjtZY-64" value="&lt;div&gt;JSON&lt;/div&gt;&lt;div&gt;file&lt;br&gt;&lt;/div&gt;" style="edgeLabel;resizable=0;html=1;align=center;verticalAlign=middle;" parent="KGWVqX3tYelNZbesqAz7-1" connectable="0" vertex="1">
          <mxGeometry x="574.2948685537926" y="450.00210313931575" as="geometry">
            <mxPoint x="14" y="-6" as="offset" />
          </mxGeometry>
        </mxCell>
        <mxCell id="UW-TUA5hILtc3TxUjtZY-65" style="edgeStyle=orthogonalEdgeStyle;rounded=0;orthogonalLoop=1;jettySize=auto;html=1;entryX=1;entryY=1;entryDx=0;entryDy=0;" parent="KGWVqX3tYelNZbesqAz7-1" source="UW-TUA5hILtc3TxUjtZY-66" target="UW-TUA5hILtc3TxUjtZY-99" edge="1">
          <mxGeometry relative="1" as="geometry" />
        </mxCell>
        <mxCell id="UW-TUA5hILtc3TxUjtZY-66" value="MAP" style="rounded=0;whiteSpace=wrap;html=1;fillColor=#ffe6cc;strokeColor=#d79b00;" parent="KGWVqX3tYelNZbesqAz7-1" vertex="1">
          <mxGeometry x="1416.0042857142853" y="607" width="88" height="40" as="geometry" />
        </mxCell>
        <mxCell id="UW-TUA5hILtc3TxUjtZY-67" value="&lt;div&gt;XML&lt;br&gt;&lt;/div&gt;&lt;div&gt;file&lt;/div&gt;" style="edgeLabel;resizable=0;html=1;align=center;verticalAlign=middle;" parent="KGWVqX3tYelNZbesqAz7-1" connectable="0" vertex="1">
          <mxGeometry x="1393.0048685537927" y="631.0021031393158" as="geometry">
            <mxPoint x="-10" y="-5" as="offset" />
          </mxGeometry>
        </mxCell>
        <mxCell id="UW-TUA5hILtc3TxUjtZY-68" style="edgeStyle=orthogonalEdgeStyle;rounded=0;orthogonalLoop=1;jettySize=auto;html=1;entryX=0.5;entryY=0;entryDx=0;entryDy=0;" parent="KGWVqX3tYelNZbesqAz7-1" source="UW-TUA5hILtc3TxUjtZY-69" target="UW-TUA5hILtc3TxUjtZY-79" edge="1">
          <mxGeometry relative="1" as="geometry">
            <Array as="points">
              <mxPoint x="1009.29" y="720" />
              <mxPoint x="914.29" y="720" />
              <mxPoint x="914.29" y="790" />
              <mxPoint x="894.29" y="790" />
            </Array>
          </mxGeometry>
        </mxCell>
        <mxCell id="UW-TUA5hILtc3TxUjtZY-69" value="Lane following" style="rounded=0;whiteSpace=wrap;html=1;" parent="KGWVqX3tYelNZbesqAz7-1" vertex="1">
          <mxGeometry x="979.29" y="670" width="60" height="40" as="geometry" />
        </mxCell>
        <mxCell id="UW-TUA5hILtc3TxUjtZY-70" style="edgeStyle=orthogonalEdgeStyle;rounded=0;orthogonalLoop=1;jettySize=auto;html=1;entryX=0.5;entryY=0;entryDx=0;entryDy=0;" parent="KGWVqX3tYelNZbesqAz7-1" source="UW-TUA5hILtc3TxUjtZY-71" target="UW-TUA5hILtc3TxUjtZY-77" edge="1">
          <mxGeometry relative="1" as="geometry">
            <Array as="points">
              <mxPoint x="1094.29" y="760" />
              <mxPoint x="1024.29" y="760" />
            </Array>
          </mxGeometry>
        </mxCell>
        <mxCell id="UW-TUA5hILtc3TxUjtZY-71" value="Acceleration" style="rounded=0;whiteSpace=wrap;html=1;" parent="KGWVqX3tYelNZbesqAz7-1" vertex="1">
          <mxGeometry x="1054.29" y="670" width="80" height="40" as="geometry" />
        </mxCell>
        <mxCell id="UW-TUA5hILtc3TxUjtZY-72" style="edgeStyle=orthogonalEdgeStyle;rounded=0;orthogonalLoop=1;jettySize=auto;html=1;entryX=0.5;entryY=0;entryDx=0;entryDy=0;" parent="KGWVqX3tYelNZbesqAz7-1" target="UW-TUA5hILtc3TxUjtZY-71" edge="1">
          <mxGeometry relative="1" as="geometry">
            <mxPoint x="974.29" y="590" as="sourcePoint" />
            <mxPoint x="1009.29" y="670" as="targetPoint" />
            <Array as="points">
              <mxPoint x="974.29" y="600" />
              <mxPoint x="1094.29" y="600" />
            </Array>
          </mxGeometry>
        </mxCell>
        <mxCell id="UW-TUA5hILtc3TxUjtZY-73" style="edgeStyle=orthogonalEdgeStyle;rounded=0;orthogonalLoop=1;jettySize=auto;html=1;entryX=0.5;entryY=0;entryDx=0;entryDy=0;" parent="KGWVqX3tYelNZbesqAz7-1" target="UW-TUA5hILtc3TxUjtZY-42" edge="1">
          <mxGeometry relative="1" as="geometry">
            <mxPoint x="974.29" y="590" as="sourcePoint" />
            <mxPoint x="1094.29" y="670" as="targetPoint" />
            <Array as="points">
              <mxPoint x="974.29" y="600" />
              <mxPoint x="1194.29" y="600" />
            </Array>
          </mxGeometry>
        </mxCell>
        <mxCell id="UW-TUA5hILtc3TxUjtZY-74" style="edgeStyle=orthogonalEdgeStyle;rounded=0;orthogonalLoop=1;jettySize=auto;html=1;entryX=0.5;entryY=0;entryDx=0;entryDy=0;" parent="KGWVqX3tYelNZbesqAz7-1" target="UW-TUA5hILtc3TxUjtZY-36" edge="1">
          <mxGeometry relative="1" as="geometry">
            <mxPoint x="974.29" y="590" as="sourcePoint" />
            <mxPoint x="764.29" y="670" as="targetPoint" />
            <Array as="points">
              <mxPoint x="974.29" y="600" />
              <mxPoint x="689.29" y="600" />
            </Array>
          </mxGeometry>
        </mxCell>
        <mxCell id="UW-TUA5hILtc3TxUjtZY-75" style="edgeStyle=orthogonalEdgeStyle;rounded=0;orthogonalLoop=1;jettySize=auto;html=1;entryX=0.5;entryY=0;entryDx=0;entryDy=0;" parent="KGWVqX3tYelNZbesqAz7-1" source="UW-TUA5hILtc3TxUjtZY-111" target="UW-TUA5hILtc3TxUjtZY-44" edge="1">
          <mxGeometry relative="1" as="geometry">
            <mxPoint x="974.29" y="590" as="sourcePoint" />
            <mxPoint x="844.29" y="670" as="targetPoint" />
            <Array as="points">
              <mxPoint x="764.29" y="600" />
            </Array>
          </mxGeometry>
        </mxCell>
        <mxCell id="UW-TUA5hILtc3TxUjtZY-76" style="edgeStyle=orthogonalEdgeStyle;rounded=0;orthogonalLoop=1;jettySize=auto;html=1;entryX=0.75;entryY=0;entryDx=0;entryDy=0;" parent="KGWVqX3tYelNZbesqAz7-1" source="UW-TUA5hILtc3TxUjtZY-77" target="UW-TUA5hILtc3TxUjtZY-81" edge="1">
          <mxGeometry relative="1" as="geometry" />
        </mxCell>
        <mxCell id="UW-TUA5hILtc3TxUjtZY-77" value="Velocity" style="rounded=0;whiteSpace=wrap;html=1;" parent="KGWVqX3tYelNZbesqAz7-1" vertex="1">
          <mxGeometry x="994.29" y="860" width="60" height="40" as="geometry" />
        </mxCell>
        <mxCell id="UW-TUA5hILtc3TxUjtZY-78" style="edgeStyle=orthogonalEdgeStyle;rounded=0;orthogonalLoop=1;jettySize=auto;html=1;entryX=0.25;entryY=0;entryDx=0;entryDy=0;" parent="KGWVqX3tYelNZbesqAz7-1" source="UW-TUA5hILtc3TxUjtZY-79" target="UW-TUA5hILtc3TxUjtZY-81" edge="1">
          <mxGeometry relative="1" as="geometry" />
        </mxCell>
        <mxCell id="UW-TUA5hILtc3TxUjtZY-79" value="Steering" style="rounded=0;whiteSpace=wrap;html=1;" parent="KGWVqX3tYelNZbesqAz7-1" vertex="1">
          <mxGeometry x="864.29" y="860" width="60" height="40" as="geometry" />
        </mxCell>
        <mxCell id="UW-TUA5hILtc3TxUjtZY-80" style="edgeStyle=orthogonalEdgeStyle;rounded=0;orthogonalLoop=1;jettySize=auto;html=1;" parent="KGWVqX3tYelNZbesqAz7-1" source="UW-TUA5hILtc3TxUjtZY-81" target="UW-TUA5hILtc3TxUjtZY-84" edge="1">
          <mxGeometry relative="1" as="geometry" />
        </mxCell>
        <mxCell id="UW-TUA5hILtc3TxUjtZY-81" value="SerialHandler" style="rounded=0;whiteSpace=wrap;html=1;fillColor=#ffe6cc;strokeColor=#d79b00;" parent="KGWVqX3tYelNZbesqAz7-1" vertex="1">
          <mxGeometry x="914.29" y="930" width="100" height="40" as="geometry" />
        </mxCell>
        <mxCell id="UW-TUA5hILtc3TxUjtZY-82" style="edgeStyle=orthogonalEdgeStyle;rounded=0;orthogonalLoop=1;jettySize=auto;html=1;entryX=0.5;entryY=1;entryDx=0;entryDy=0;" parent="KGWVqX3tYelNZbesqAz7-1" source="UW-TUA5hILtc3TxUjtZY-83" target="UW-TUA5hILtc3TxUjtZY-84" edge="1">
          <mxGeometry relative="1" as="geometry">
            <Array as="points">
              <mxPoint x="1114.29" y="990" />
              <mxPoint x="814.29" y="990" />
            </Array>
          </mxGeometry>
        </mxCell>
        <mxCell id="UW-TUA5hILtc3TxUjtZY-83" value="Talker" style="rounded=0;whiteSpace=wrap;html=1;fillColor=#ffe6cc;strokeColor=#d79b00;" parent="KGWVqX3tYelNZbesqAz7-1" vertex="1">
          <mxGeometry x="1064.29" y="930" width="100" height="40" as="geometry" />
        </mxCell>
        <mxCell id="UW-TUA5hILtc3TxUjtZY-84" value="Logging" style="rounded=0;whiteSpace=wrap;html=1;fillColor=#ffe6cc;strokeColor=#d79b00;" parent="KGWVqX3tYelNZbesqAz7-1" vertex="1">
          <mxGeometry x="764.29" y="930" width="100" height="40" as="geometry" />
        </mxCell>
        <mxCell id="UW-TUA5hILtc3TxUjtZY-85" value="Distance Sensor" style="rounded=0;whiteSpace=wrap;html=1;" parent="KGWVqX3tYelNZbesqAz7-1" vertex="1">
          <mxGeometry x="764.29" y="310" width="70" height="40" as="geometry" />
        </mxCell>
        <mxCell id="UW-TUA5hILtc3TxUjtZY-86" value="Object classifier and data fusion" style="rounded=0;whiteSpace=wrap;html=1;" parent="KGWVqX3tYelNZbesqAz7-1" vertex="1">
          <mxGeometry x="664.29" y="430" width="80" height="40" as="geometry" />
        </mxCell>
        <mxCell id="UW-TUA5hILtc3TxUjtZY-87" value="Lane detection" style="rounded=0;whiteSpace=wrap;html=1;" parent="KGWVqX3tYelNZbesqAz7-1" vertex="1">
          <mxGeometry x="774.29" y="430" width="70" height="40" as="geometry" />
        </mxCell>
        <mxCell id="UW-TUA5hILtc3TxUjtZY-88" value="Sign detection" style="rounded=0;whiteSpace=wrap;html=1;" parent="KGWVqX3tYelNZbesqAz7-1" vertex="1">
          <mxGeometry x="869.29" y="430" width="70" height="40" as="geometry" />
        </mxCell>
        <mxCell id="UW-TUA5hILtc3TxUjtZY-89" value="Intersection detection" style="rounded=0;whiteSpace=wrap;html=1;" parent="KGWVqX3tYelNZbesqAz7-1" vertex="1">
          <mxGeometry x="964.29" y="430" width="75" height="40" as="geometry" />
        </mxCell>
        <mxCell id="UW-TUA5hILtc3TxUjtZY-90" value="Traffic light detection and data fusion" style="rounded=0;whiteSpace=wrap;html=1;" parent="KGWVqX3tYelNZbesqAz7-1" vertex="1">
          <mxGeometry x="1064.29" y="420" width="90" height="60" as="geometry" />
        </mxCell>
        <mxCell id="UW-TUA5hILtc3TxUjtZY-91" value="Position fusion" style="rounded=0;whiteSpace=wrap;html=1;" parent="KGWVqX3tYelNZbesqAz7-1" vertex="1">
          <mxGeometry x="1169.29" y="430" width="60" height="40" as="geometry" />
        </mxCell>
        <mxCell id="UW-TUA5hILtc3TxUjtZY-92" value="Lane detection" style="rounded=0;whiteSpace=wrap;html=1;" parent="KGWVqX3tYelNZbesqAz7-1" vertex="1">
          <mxGeometry x="774.29" y="430" width="70" height="40" as="geometry" />
        </mxCell>
        <mxCell id="UW-TUA5hILtc3TxUjtZY-93" value="Sign detection" style="rounded=0;whiteSpace=wrap;html=1;" parent="KGWVqX3tYelNZbesqAz7-1" vertex="1">
          <mxGeometry x="869.29" y="430" width="70" height="40" as="geometry" />
        </mxCell>
        <mxCell id="UW-TUA5hILtc3TxUjtZY-94" value="Intersection detection" style="rounded=0;whiteSpace=wrap;html=1;" parent="KGWVqX3tYelNZbesqAz7-1" vertex="1">
          <mxGeometry x="964.29" y="430" width="75" height="40" as="geometry" />
        </mxCell>
        <mxCell id="UW-TUA5hILtc3TxUjtZY-95" value="&lt;font style=&quot;font-size: 14px&quot;&gt;&lt;b&gt;Perception &amp;amp; scene understanding&lt;br&gt;&lt;/b&gt;&lt;/font&gt;" style="text;html=1;strokeColor=none;fillColor=none;align=center;verticalAlign=middle;whiteSpace=wrap;rounded=0;" parent="KGWVqX3tYelNZbesqAz7-1" vertex="1">
          <mxGeometry x="1240" y="440" width="90" height="20" as="geometry" />
        </mxCell>
        <mxCell id="UW-TUA5hILtc3TxUjtZY-96" value="&lt;div style=&quot;font-size: 14px&quot;&gt;&lt;b&gt;&lt;font style=&quot;font-size: 14px&quot;&gt;&lt;span&gt;Sensing &amp;amp;&lt;br&gt;&lt;/span&gt;&lt;/font&gt;&lt;/b&gt;&lt;/div&gt;&lt;div style=&quot;font-size: 14px&quot;&gt;&lt;b&gt;&lt;font style=&quot;font-size: 14px&quot;&gt;Input&lt;/font&gt;&lt;/b&gt;&lt;/div&gt;" style="text;html=1;align=center;verticalAlign=middle;whiteSpace=wrap;rounded=0;" parent="KGWVqX3tYelNZbesqAz7-1" vertex="1">
          <mxGeometry x="1256" y="325" width="90" height="20" as="geometry" />
        </mxCell>
        <mxCell id="UW-TUA5hILtc3TxUjtZY-97" value="&lt;div style=&quot;font-size: 14px&quot;&gt;&lt;font style=&quot;font-size: 14px&quot;&gt;&lt;b&gt;Behavior and motion plan&lt;/b&gt;&lt;/font&gt;&lt;br&gt;&lt;/div&gt;" style="text;html=1;strokeColor=none;fillColor=none;align=center;verticalAlign=middle;whiteSpace=wrap;rounded=0;" parent="KGWVqX3tYelNZbesqAz7-1" vertex="1">
          <mxGeometry x="1242" y="560" width="90" height="20" as="geometry" />
        </mxCell>
        <mxCell id="UW-TUA5hILtc3TxUjtZY-98" style="edgeStyle=orthogonalEdgeStyle;rounded=0;orthogonalLoop=1;jettySize=auto;html=1;" parent="KGWVqX3tYelNZbesqAz7-1" source="UW-TUA5hILtc3TxUjtZY-99" target="UW-TUA5hILtc3TxUjtZY-101" edge="1">
          <mxGeometry x="644.29" y="530" as="geometry" />
        </mxCell>
        <mxCell id="UW-TUA5hILtc3TxUjtZY-99" value="Path planning" style="rounded=0;whiteSpace=wrap;html=1;" parent="KGWVqX3tYelNZbesqAz7-1" vertex="1">
          <mxGeometry x="1164.29" y="550" width="60" height="40" as="geometry" />
        </mxCell>
        <mxCell id="UW-TUA5hILtc3TxUjtZY-100" style="edgeStyle=orthogonalEdgeStyle;rounded=0;orthogonalLoop=1;jettySize=auto;html=1;exitX=0.5;exitY=1;exitDx=0;exitDy=0;" parent="KGWVqX3tYelNZbesqAz7-1" source="UW-TUA5hILtc3TxUjtZY-101" target="UW-TUA5hILtc3TxUjtZY-83" edge="1">
          <mxGeometry relative="1" as="geometry">
            <Array as="points">
              <mxPoint x="974.29" y="600" />
              <mxPoint x="1044.29" y="600" />
              <mxPoint x="1044.29" y="840" />
              <mxPoint x="1114.29" y="840" />
            </Array>
          </mxGeometry>
        </mxCell>
        <mxCell id="UW-TUA5hILtc3TxUjtZY-101" value="Decision making" style="rounded=0;whiteSpace=wrap;html=1;" parent="KGWVqX3tYelNZbesqAz7-1" vertex="1">
          <mxGeometry x="934.29" y="550" width="80" height="40" as="geometry" />
        </mxCell>
        <mxCell id="UW-TUA5hILtc3TxUjtZY-102" value="&lt;div&gt;Ideal&lt;/div&gt;&lt;div&gt;path&lt;br&gt;&lt;/div&gt;" style="edgeLabel;resizable=0;html=1;align=center;verticalAlign=middle;" parent="KGWVqX3tYelNZbesqAz7-1" connectable="0" vertex="1">
          <mxGeometry x="1134.2948685537926" y="570.0021031393158" as="geometry">
            <mxPoint x="-2" y="2" as="offset" />
          </mxGeometry>
        </mxCell>
        <mxCell id="UW-TUA5hILtc3TxUjtZY-103" value="&lt;font style=&quot;font-size: 14px&quot;&gt;&lt;b&gt;Actuation&lt;/b&gt;&lt;/font&gt;" style="text;html=1;strokeColor=none;fillColor=none;align=center;verticalAlign=middle;whiteSpace=wrap;rounded=0;" parent="KGWVqX3tYelNZbesqAz7-1" vertex="1">
          <mxGeometry x="1244.29" y="920" width="90" height="20" as="geometry" />
        </mxCell>
        <mxCell id="UW-TUA5hILtc3TxUjtZY-104" value="Turn" style="edgeLabel;resizable=0;html=1;align=center;verticalAlign=middle;" parent="KGWVqX3tYelNZbesqAz7-1" connectable="0" vertex="1">
          <mxGeometry x="1184.2948685537926" y="640.0021031393158" as="geometry">
            <mxPoint x="14" y="-6" as="offset" />
          </mxGeometry>
        </mxCell>
        <mxCell id="UW-TUA5hILtc3TxUjtZY-105" value="Speed" style="edgeLabel;resizable=0;html=1;align=center;verticalAlign=middle;" parent="KGWVqX3tYelNZbesqAz7-1" connectable="0" vertex="1">
          <mxGeometry x="1084.2948685537926" y="640.0021031393158" as="geometry">
            <mxPoint x="14" y="-6" as="offset" />
          </mxGeometry>
        </mxCell>
        <mxCell id="UW-TUA5hILtc3TxUjtZY-106" value="Error to mid" style="edgeLabel;resizable=0;html=1;align=center;verticalAlign=middle;" parent="KGWVqX3tYelNZbesqAz7-1" connectable="0" vertex="1">
          <mxGeometry x="994.2948685537926" y="640.0021031393158" as="geometry">
            <mxPoint x="14" y="-6" as="offset" />
          </mxGeometry>
        </mxCell>
        <mxCell id="UW-TUA5hILtc3TxUjtZY-107" value="Trigger" style="edgeLabel;resizable=0;html=1;align=center;verticalAlign=middle;" parent="KGWVqX3tYelNZbesqAz7-1" connectable="0" vertex="1">
          <mxGeometry x="914.2948685537926" y="640.0021031393158" as="geometry">
            <mxPoint x="14" y="-6" as="offset" />
          </mxGeometry>
        </mxCell>
        <mxCell id="UW-TUA5hILtc3TxUjtZY-108" value="Trigger" style="edgeLabel;resizable=0;html=1;align=center;verticalAlign=middle;" parent="KGWVqX3tYelNZbesqAz7-1" connectable="0" vertex="1">
          <mxGeometry x="834.2948685537926" y="640.0021031393158" as="geometry">
            <mxPoint x="14" y="-6" as="offset" />
          </mxGeometry>
        </mxCell>
        <mxCell id="UW-TUA5hILtc3TxUjtZY-109" value="Trigger" style="edgeLabel;resizable=0;html=1;align=center;verticalAlign=middle;" parent="KGWVqX3tYelNZbesqAz7-1" connectable="0" vertex="1">
          <mxGeometry x="754.2948685537926" y="640.0021031393158" as="geometry">
            <mxPoint x="14" y="-6" as="offset" />
          </mxGeometry>
        </mxCell>
        <mxCell id="UW-TUA5hILtc3TxUjtZY-110" value="Trigger" style="edgeLabel;resizable=0;html=1;align=center;verticalAlign=middle;" parent="KGWVqX3tYelNZbesqAz7-1" connectable="0" vertex="1">
          <mxGeometry x="724.2948685537926" y="640.0021031393158" as="geometry">
            <mxPoint x="-34" y="-7" as="offset" />
          </mxGeometry>
        </mxCell>
        <mxCell id="UW-TUA5hILtc3TxUjtZY-111" value="" style="ellipse;whiteSpace=wrap;html=1;aspect=fixed;shadow=0;gradientColor=none;fillColor=#330000;" parent="KGWVqX3tYelNZbesqAz7-1" vertex="1">
          <mxGeometry x="969.29" y="594" width="10" height="10" as="geometry" />
        </mxCell>
        <mxCell id="UW-TUA5hILtc3TxUjtZY-112" style="edgeStyle=orthogonalEdgeStyle;rounded=0;orthogonalLoop=1;jettySize=auto;html=1;entryX=0.5;entryY=0;entryDx=0;entryDy=0;" parent="KGWVqX3tYelNZbesqAz7-1" target="UW-TUA5hILtc3TxUjtZY-111" edge="1">
          <mxGeometry relative="1" as="geometry">
            <mxPoint x="974.29" y="590" as="sourcePoint" />
            <mxPoint x="764.29" y="670" as="targetPoint" />
            <Array as="points">
              <mxPoint x="974.29" y="600" />
            </Array>
          </mxGeometry>
        </mxCell>
        <mxCell id="UW-TUA5hILtc3TxUjtZY-113" value="&lt;div&gt;Traffic monitor talker&lt;/div&gt;" style="rounded=0;whiteSpace=wrap;html=1;fillColor=#ffe6cc;strokeColor=#d79b00;" parent="KGWVqX3tYelNZbesqAz7-1" vertex="1">
          <mxGeometry x="1416.0042857142853" y="430" width="86" height="40" as="geometry" />
        </mxCell>
        <mxCell id="UW-TUA5hILtc3TxUjtZY-114" value="&lt;div&gt;Obstacle &lt;br&gt;&lt;/div&gt;&lt;div&gt;id&amp;amp;loc&lt;/div&gt;" style="endArrow=classic;html=1;entryX=0;entryY=0.5;entryDx=0;entryDy=0;exitX=1;exitY=0.5;exitDx=0;exitDy=0;" parent="KGWVqX3tYelNZbesqAz7-1" edge="1">
          <mxGeometry width="50" height="50" relative="1" as="geometry">
            <mxPoint x="1344.0042857142853" y="450" as="sourcePoint" />
            <mxPoint x="1416.0042857142853" y="450" as="targetPoint" />
          </mxGeometry>
        </mxCell>
        <mxCell id="UW-TUA5hILtc3TxUjtZY-115" value="Layer" style="rounded=0;whiteSpace=wrap;html=1;fillColor=#dae8fc;strokeColor=#6c8ebf;" parent="KGWVqX3tYelNZbesqAz7-1" vertex="1">
          <mxGeometry x="1729.0042857142853" y="962" width="115" height="39" as="geometry" />
        </mxCell>
        <mxCell id="UW-TUA5hILtc3TxUjtZY-116" value="Given pacakge" style="rounded=0;whiteSpace=wrap;html=1;fillColor=#ffe6cc;strokeColor=#d79b00;" parent="KGWVqX3tYelNZbesqAz7-1" vertex="1">
          <mxGeometry x="1729.0042857142853" y="906" width="115" height="40" as="geometry" />
        </mxCell>
        <mxCell id="UW-TUA5hILtc3TxUjtZY-117" value="Suggested package" style="rounded=0;whiteSpace=wrap;html=1;" parent="KGWVqX3tYelNZbesqAz7-1" vertex="1">
          <mxGeometry x="1729.0042857142853" y="842" width="118" height="40" as="geometry" />
        </mxCell>
        <mxCell id="UW-TUA5hILtc3TxUjtZY-118" value="Legend" style="text;html=1;strokeColor=none;fillColor=none;align=center;verticalAlign=middle;whiteSpace=wrap;rounded=0;" parent="KGWVqX3tYelNZbesqAz7-1" vertex="1">
          <mxGeometry x="1766.5042857142853" y="790" width="40" height="20" as="geometry" />
        </mxCell>
        <mxCell id="E503gVcBlHlvs0uajYpI-0" value="&lt;div&gt;Layer debug&lt;/div&gt;" style="rounded=0;whiteSpace=wrap;html=1;" parent="KGWVqX3tYelNZbesqAz7-1" vertex="1">
          <mxGeometry x="1530" y="420" width="120" height="60" as="geometry" />
        </mxCell>
        <mxCell id="E503gVcBlHlvs0uajYpI-1" value="Layer debug" style="rounded=0;whiteSpace=wrap;html=1;" parent="KGWVqX3tYelNZbesqAz7-1" vertex="1">
          <mxGeometry x="1530" y="300" width="120" height="60" as="geometry" />
        </mxCell>
        <mxCell id="E503gVcBlHlvs0uajYpI-2" value="Layer debug" style="rounded=0;whiteSpace=wrap;html=1;" parent="KGWVqX3tYelNZbesqAz7-1" vertex="1">
          <mxGeometry x="1530" y="540" width="120" height="60" as="geometry" />
        </mxCell>
        <mxCell id="E503gVcBlHlvs0uajYpI-3" value="Layer debug" style="rounded=0;whiteSpace=wrap;html=1;" parent="KGWVqX3tYelNZbesqAz7-1" vertex="1">
          <mxGeometry x="1530" y="660" width="120" height="60" as="geometry" />
        </mxCell>
        <mxCell id="E503gVcBlHlvs0uajYpI-4" value="Layer debug" style="rounded=0;whiteSpace=wrap;html=1;" parent="KGWVqX3tYelNZbesqAz7-1" vertex="1">
          <mxGeometry x="1530" y="900" width="120" height="60" as="geometry" />
        </mxCell>
        <mxCell id="E503gVcBlHlvs0uajYpI-6" value="" style="endArrow=classic;html=1;entryX=0;entryY=0.5;entryDx=0;entryDy=0;exitX=1;exitY=0.25;exitDx=0;exitDy=0;" parent="KGWVqX3tYelNZbesqAz7-1" source="UW-TUA5hILtc3TxUjtZY-96" target="E503gVcBlHlvs0uajYpI-1" edge="1">
          <mxGeometry width="50" height="50" relative="1" as="geometry">
            <mxPoint x="1090" y="640" as="sourcePoint" />
            <mxPoint x="1140" y="590" as="targetPoint" />
          </mxGeometry>
        </mxCell>
        <mxCell id="E503gVcBlHlvs0uajYpI-7" value="" style="endArrow=classic;html=1;entryX=0;entryY=0.5;entryDx=0;entryDy=0;exitX=1;exitY=0.5;exitDx=0;exitDy=0;" parent="KGWVqX3tYelNZbesqAz7-1" source="UW-TUA5hILtc3TxUjtZY-5" target="E503gVcBlHlvs0uajYpI-0" edge="1">
          <mxGeometry width="50" height="50" relative="1" as="geometry">
            <mxPoint x="1356" y="340" as="sourcePoint" />
            <mxPoint x="1539.9999999999995" y="340" as="targetPoint" />
            <Array as="points">
              <mxPoint x="1360" y="410" />
              <mxPoint x="1520" y="410" />
            </Array>
          </mxGeometry>
        </mxCell>
        <mxCell id="E503gVcBlHlvs0uajYpI-9" value="" style="endArrow=classic;html=1;entryX=0;entryY=0.5;entryDx=0;entryDy=0;exitX=1;exitY=0.25;exitDx=0;exitDy=0;" parent="KGWVqX3tYelNZbesqAz7-1" edge="1">
          <mxGeometry width="50" height="50" relative="1" as="geometry">
            <mxPoint x="1343" y="570" as="sourcePoint" />
            <mxPoint x="1526.9999999999995" y="570" as="targetPoint" />
          </mxGeometry>
        </mxCell>
        <mxCell id="E503gVcBlHlvs0uajYpI-10" value="" style="endArrow=classic;html=1;entryX=0;entryY=0.5;entryDx=0;entryDy=0;exitX=1;exitY=0.25;exitDx=0;exitDy=0;" parent="KGWVqX3tYelNZbesqAz7-1" edge="1">
          <mxGeometry width="50" height="50" relative="1" as="geometry">
            <mxPoint x="1346" y="689.4100000000001" as="sourcePoint" />
            <mxPoint x="1529.9999999999995" y="689.4100000000001" as="targetPoint" />
          </mxGeometry>
        </mxCell>
        <mxCell id="E503gVcBlHlvs0uajYpI-11" value="" style="endArrow=classic;html=1;entryX=0;entryY=0.5;entryDx=0;entryDy=0;exitX=1;exitY=0.25;exitDx=0;exitDy=0;" parent="KGWVqX3tYelNZbesqAz7-1" edge="1">
          <mxGeometry width="50" height="50" relative="1" as="geometry">
            <mxPoint x="1346" y="930" as="sourcePoint" />
            <mxPoint x="1529.9999999999995" y="930" as="targetPoint" />
          </mxGeometry>
        </mxCell>
      </root>
    </mxGraphModel>
  </diagram>
</mxfile>
